/* XPM */
static char *east[] = {
/* columns rows colors chars-per-pixel */
"32 32 3 1",
"  c #FFA000", /* Orange */
". c #FF6F00", /* Dark orange */
"+ c #FFFFFF", /* White */
/* pixels */
"                                ",
" ............................ . ",
" ............................ . ",
" ..........+++++............. . ",
" ..........+++++............. . ",
" ..........+++++............. . ",
" ............................ . ",
" ............................ . ",
"                                ",
" ............................ . ",
" ............................ . ",
" ..........+++++............. . ",
" ..........+++++............. . ",
" ..........+++++............. . ",
" ............................ . ",
" ............................ . ",
"                                ",
" ............................ . ",
" ............................ . ",
" ..........+++++............. . ",
" ..........+++++............. . ",
" ..........+++++............. . ",
" ............................ . ",
" ............................ . ",
"                                ",
" ............................ . ",
" ............................ . ",
" ..........+++++............. . ",
" ..........+++++............. . ",
" ..........+++++............. . ",
" ............................ . ",
"                                "
};