/* XPM */
static char *west[] = {
/* columns rows colors chars-per-pixel */
"32 32 3 1",
"  c #43A047", /* Green */
". c #2E7D32", /* Dark green */
"+ c #FFFFFF", /* White */
/* pixels */
"                                ",
" ............................ . ",
" ............................ . ",
" ......++.................... . ",
" ......++.................... . ",
" ......++.................... . ",
" ......++.................... . ",
" ............................ . ",
" ............................ . ",
" ......++.................... . ",
" ......++.................... . ",
" ......++.................... . ",
" ......++.................... . ",
" ............................ . ",
" ............................ . ",
" ......++.................... . ",
" ......++.................... . ",
" ......++.................... . ",
" ......++.................... . ",
" ............................ . ",
" ............................ . ",
" ......++.................... . ",
" ......++.................... . ",
" ......++.................... . ",
" ......++.................... . ",
" ............................ . ",
" ............................ . ",
" ......++.................... . ",
" ......++.................... . ",
" ......++.................... . ",
" ......++.................... . ",
"                                "
};